<svg width="133" height="28" viewBox="0 0 133 28" fill="none" xmlns="http://www.w3.org/2000/svg">
<path d="M16.9528 4.91024C18.1264 3.74802 20.0294 3.74802 21.2031 4.91024C22.3767 6.07245 22.3767 7.95694 21.2031 9.11915L8.04441 22.1494C8.04441 22.1494 7.5119 20.2915 6.51701 19.3062C5.52212 18.321 3.79443 17.9408 3.79443 17.9408L16.9528 4.91024Z" fill="#333236"/>
<ellipse cx="19.7156" cy="19.8959" rx="3.20048" ry="3.16933" fill="#83C6E5"/>
<path d="M128.283 6.91343H132.386L126.82 16.5453V20.8356H122.516V16.5453L116.749 6.91343H121.282L124.467 13.0221H124.983L128.283 6.91343Z" fill="#333236"/>
<path d="M115.918 10.3514H108.745V13.3347H114.569V16.5737H108.745V20.8356H104.786V6.91343H115.918V10.3514Z" fill="#333236"/>
<path d="M96.375 20.8356L96.289 6.91343H100.707L100.65 20.8356H96.375Z" fill="#333236"/>
<path d="M89.5127 20.8356L86.2132 15.9486H84.3482V20.8356H80.0444V6.91343H84.3482V12.3118H86.0123L88.8528 6.88502L93.6731 6.91343L89.2832 13.6472L94.3904 20.8356H89.5127Z" fill="#333236"/>
<path d="M70.6947 21.0345C68.9349 21.0345 67.2612 20.5799 65.6736 19.6707L66.85 16.8863C68.0742 17.4734 69.2218 17.767 70.293 17.767C71.8615 17.767 72.6457 17.3882 72.6457 16.6305C72.6457 16.3275 72.4832 16.1096 72.158 15.977C71.8519 15.8445 71.2781 15.6929 70.4365 15.5224C67.223 15.0489 65.6162 13.6188 65.6162 11.2321C65.6162 9.69786 66.1327 8.55189 67.1656 7.79422C68.1985 7.03655 69.6044 6.65771 71.3833 6.65771C73.1622 6.65771 74.7689 7.07443 76.2035 7.90787L75.0846 10.7207C74.0708 10.2093 72.9422 9.94411 71.6989 9.92516C70.9721 9.90622 70.3982 10.0009 69.9774 10.2093C69.5757 10.3987 69.3749 10.6639 69.3749 11.0048C69.3749 11.3269 69.5279 11.5636 69.8339 11.7152C70.14 11.8667 70.6947 12.0372 71.4981 12.2266C73.3726 12.6244 74.6829 13.1168 75.4289 13.704C76.194 14.2912 76.5765 15.1815 76.5765 16.3748C76.5765 17.2272 76.3948 17.9754 76.0314 18.6194C75.668 19.2445 75.1802 19.7275 74.5681 20.0685C73.956 20.4094 73.3248 20.6557 72.6744 20.8072C72.0432 20.9587 71.3833 21.0345 70.6947 21.0345Z" fill="#333236"/>
<path d="M60.3674 20.8356L59.2771 18.0228H52.7641L51.7025 20.8356H47.8291L53.2232 6.91343H58.9902L64.4991 20.8356H60.3674ZM53.9118 15.0678H58.1008L56.0636 9.81151H55.9489L53.9118 15.0678Z" fill="#333236"/>
<path d="M47.9889 6.91343V10.2945H43.9147V20.8356H39.5248V10.2945H35.4219V6.91343H47.9889Z" fill="#333236"/>
</svg>
