<svg width="22" height="22" viewBox="0 0 22 22" fill="none" xmlns="http://www.w3.org/2000/svg">
<path d="M4.86555 20.5224C4.40252 20.5224 4.01058 20.362 3.68975 20.0411C3.36891 19.7203 3.2085 19.3284 3.2085 18.8653V6.59615C3.2085 6.13311 3.36891 5.74118 3.68975 5.42034C4.01058 5.09951 4.40252 4.93909 4.86555 4.93909H6.13479V3.7051C6.13479 3.50415 6.20208 3.33639 6.33664 3.20183C6.4712 3.06728 6.63895 3 6.83992 3C7.04087 3 7.20862 3.06728 7.34319 3.20183C7.47774 3.33639 7.54502 3.50415 7.54502 3.7051V4.93909H14.4905V3.68748C14.4905 3.4924 14.5563 3.32904 14.6879 3.19743C14.8196 3.06581 14.9829 3 15.178 3C15.3731 3 15.5364 3.06581 15.668 3.19743C15.7997 3.32904 15.8655 3.4924 15.8655 3.68748V4.93909H17.1347C17.5978 4.93909 17.9897 5.09951 18.3105 5.42034C18.6314 5.74118 18.7918 6.13311 18.7918 6.59615V18.8653C18.7918 19.3284 18.6314 19.7203 18.3105 20.0411C17.9897 20.362 17.5978 20.5224 17.1347 20.5224H4.86555ZM4.86555 19.1474H17.1347C17.2052 19.1474 17.2699 19.118 17.3287 19.0593C17.3874 19.0005 17.4168 18.9358 17.4168 18.8653V10.2628H4.58347V18.8653C4.58347 18.9358 4.61285 19.0005 4.67161 19.0593C4.73038 19.118 4.79503 19.1474 4.86555 19.1474ZM4.58347 8.88784H17.4168V6.59615C17.4168 6.52563 17.3874 6.46098 17.3287 6.40221C17.2699 6.34345 17.2052 6.31407 17.1347 6.31407H4.86555C4.79503 6.31407 4.73038 6.34345 4.67161 6.40221C4.61285 6.46098 4.58347 6.52563 4.58347 6.59615V8.88784Z" fill="#A39FB2"/>
</svg>
