<svg width="18" height="18" viewBox="0 0 18 18" fill="none" xmlns="http://www.w3.org/2000/svg">
<path d="M15.2219 7.34689L9.59692 12.9719C9.51854 13.0506 9.42539 13.113 9.32283 13.1556C9.22027 13.1981 9.11032 13.2201 8.99927 13.2201C8.88822 13.2201 8.77826 13.1981 8.6757 13.1556C8.57314 13.113 8.48 13.0506 8.40161 12.9719L2.77661 7.34689C2.6181 7.18839 2.52905 6.9734 2.52905 6.74924C2.52905 6.52507 2.6181 6.31009 2.77661 6.15158C2.93512 5.99307 3.1501 5.90402 3.37427 5.90402C3.59843 5.90402 3.81341 5.99307 3.97192 6.15158L8.99997 11.1796L14.028 6.15088C14.1865 5.99237 14.4015 5.90332 14.6257 5.90332C14.8498 5.90332 15.0648 5.99237 15.2233 6.15088C15.3818 6.30939 15.4709 6.52437 15.4709 6.74853C15.4709 6.9727 15.3818 7.18768 15.2233 7.34619L15.2219 7.34689Z" fill="#A39FB2"/>
</svg>
