<svg width="186" height="48" viewBox="0 0 186 48" fill="none" xmlns="http://www.w3.org/2000/svg">
<path d="M33.5501 13.2774C34.9494 11.8828 37.2184 11.8828 38.6178 13.2774C40.0171 14.6721 40.0171 16.9335 38.6178 18.3281L22.9286 33.9645C22.9286 33.9645 22.2937 31.7349 21.1075 30.5527C19.9213 29.3704 17.8613 28.9141 17.8613 28.9141L33.5501 13.2774Z" fill="#404040"/>
<ellipse cx="36.8438" cy="31.2602" rx="3.81596" ry="3.80319" fill="#83C6E5"/>
<path d="M166.289 15.6809H171.181L164.544 27.2391V32.3875H159.413V27.2391L152.537 15.6809H157.942L161.739 23.0113H162.355L166.289 15.6809Z" fill="#404040"/>
<path d="M151.546 19.8064H142.994V23.3864H149.939V27.2732H142.994V32.3875H138.273V15.6809H151.546V19.8064Z" fill="#404040"/>
<path d="M128.245 32.3875L128.143 15.6809H133.411L133.342 32.3875H128.245Z" fill="#404040"/>
<path d="M120.063 32.3875L116.129 26.5231H113.906V32.3875H108.774V15.6809H113.906V22.159H115.89L119.276 15.6468L125.024 15.6809L119.79 23.7614L125.879 32.3875H120.063Z" fill="#404040"/>
<path d="M97.6264 32.6262C95.5282 32.6262 93.5326 32.0806 91.6397 30.9896L93.0423 27.6483C94.5019 28.3529 95.8703 28.7052 97.1474 28.7052C99.0176 28.7052 99.9526 28.2506 99.9526 27.3414C99.9526 26.9777 99.7588 26.7163 99.3711 26.5572C99.0062 26.3981 98.322 26.2163 97.3185 26.0117C93.487 25.4435 91.5713 23.7273 91.5713 20.8633C91.5713 19.0222 92.1871 17.647 93.4186 16.7378C94.6501 15.8286 96.3264 15.374 98.4474 15.374C100.568 15.374 102.484 15.8741 104.195 16.8742L102.86 20.2496C101.652 19.6359 100.306 19.3177 98.8237 19.295C97.9571 19.2722 97.2729 19.3859 96.7711 19.6359C96.2922 19.8632 96.0527 20.1814 96.0527 20.5906C96.0527 20.977 96.2352 21.2611 96.6001 21.443C96.965 21.6248 97.6264 21.8294 98.5842 22.0567C100.819 22.534 102.381 23.125 103.271 23.8296C104.183 24.5342 104.639 25.6026 104.639 27.0346C104.639 28.0574 104.423 28.9552 103.989 29.7281C103.556 30.4782 102.974 31.0578 102.245 31.4669C101.515 31.8761 100.762 32.1716 99.9868 32.3534C99.2342 32.5352 98.4474 32.6262 97.6264 32.6262Z" fill="#404040"/>
<path d="M85.3131 32.3875L84.0131 29.0121H76.2476L74.9818 32.3875H70.3635L76.7949 15.6809H83.671L90.2393 32.3875H85.3131ZM77.6159 25.4662H82.6105L80.1817 19.1586H80.0448L77.6159 25.4662Z" fill="#404040"/>
<path d="M70.5541 15.6809V19.7382H65.6963V32.3875H60.4623V19.7382H55.5703V15.6809H70.5541Z" fill="#404040"/>
</svg>
