<svg width="10" height="10" viewBox="0 0 10 10" fill="none" xmlns="http://www.w3.org/2000/svg">
<path d="M4.04385 5.56052H0.75835C0.545539 5.56052 0.365944 5.48733 0.219567 5.34095C0.0731888 5.19457 0 5.01498 0 4.80218C0 4.58938 0.0731888 4.40979 0.219567 4.26342C0.365944 4.11704 0.545539 4.04385 0.75835 4.04385H4.04385V0.75835C4.04385 0.545539 4.11704 0.365945 4.26342 0.219567C4.40979 0.0731891 4.58938 0 4.80218 0C5.01498 0 5.19457 0.0731891 5.34095 0.219567C5.48733 0.365945 5.56052 0.545539 5.56052 0.75835V4.04385H8.84602C9.05883 4.04385 9.23842 4.11704 9.3848 4.26342C9.53118 4.40979 9.60437 4.58938 9.60437 4.80218C9.60437 5.01498 9.53118 5.19457 9.3848 5.34095C9.23842 5.48733 9.05883 5.56052 8.84602 5.56052H5.56052V8.84602C5.56052 9.05883 5.48733 9.23842 5.34095 9.3848C5.19457 9.53118 5.01498 9.60437 4.80218 9.60437C4.58938 9.60437 4.40979 9.53118 4.26342 9.3848C4.11704 9.23842 4.04385 9.05883 4.04385 8.84602V5.56052Z" fill="#56AFDB"/>
</svg>
