<svg width="24" height="24" viewBox="0 0 24 24" fill="none" xmlns="http://www.w3.org/2000/svg">
<path d="M10.9134 13.0852C10.7223 12.8945 10.4945 12.7444 10.2438 12.644L2.31381 9.46399C2.21912 9.426 2.13833 9.35996 2.08226 9.27472C2.0262 9.18949 1.99755 9.08914 2.00016 8.98715C2.00278 8.88517 2.03652 8.78642 2.09688 8.70417C2.15723 8.62191 2.2413 8.56009 2.33781 8.527L21.3378 2.027C21.4264 1.99499 21.5223 1.98888 21.6143 2.00939C21.7062 2.02989 21.7904 2.07616 21.857 2.14277C21.9236 2.20939 21.9699 2.2936 21.9904 2.38555C22.0109 2.4775 22.0048 2.57339 21.9728 2.662L15.4728 21.662C15.4397 21.7585 15.3779 21.8426 15.2956 21.9029C15.2134 21.9633 15.1146 21.997 15.0126 21.9996C14.9107 22.0022 14.8103 21.9736 14.7251 21.9175C14.6398 21.8615 14.5738 21.7807 14.5358 21.686L11.3558 13.754C11.255 13.5035 11.1045 13.276 10.9134 13.0852ZM10.9134 13.0852L21.8538 2.147" stroke="#333236" stroke-width="2" stroke-linecap="round" stroke-linejoin="round"/>
</svg>
