<svg width="88" height="75" viewBox="0 0 88 75" fill="none" xmlns="http://www.w3.org/2000/svg">
<path d="M39.5832 27.0832L10.6649 8.58156C9.8049 8.03135 8.9275 7.98327 8.03271 8.4373C7.13799 8.89132 6.65056 9.61247 6.57042 10.6007C6.49028 11.1189 6.54903 11.6183 6.74667 12.0991C6.94431 12.5798 7.28083 12.9671 7.75625 13.2609L37.556 32.2995C38.2003 32.6894 38.8769 32.8844 39.5857 32.8844C40.2945 32.8844 40.9694 32.6894 41.6104 32.2995L71.4102 13.2609C71.8856 12.9671 72.2288 12.5798 72.4398 12.0991C72.6508 11.6183 72.7029 11.1189 72.596 10.6007C72.5159 9.61247 72.0285 8.89803 71.1338 8.4574C70.239 8.01671 69.3616 8.07146 68.5016 8.62167L39.5832 27.0832ZM68.7499 74.9997C63.547 74.9997 59.1213 73.1755 55.4727 69.5271C51.8242 65.8785 50 61.4528 50 56.2499C50 51.047 51.8242 46.6213 55.4727 42.9727C59.1213 39.3242 63.547 37.5 68.7499 37.5C73.9528 37.5 78.3785 39.3242 82.0271 42.9727C85.6756 46.6213 87.4998 51.047 87.4998 56.2499C87.4998 61.4528 85.6756 65.8785 82.0271 69.5271C78.3785 73.1756 73.9528 74.9998 68.7499 74.9998V74.9997ZM59.4551 58.0928H78.054C78.5499 58.0928 78.9795 57.9085 79.3427 57.5399C79.706 57.1714 79.8876 56.7414 79.8876 56.2499C79.8876 55.7584 79.7033 55.3284 79.3348 54.9599C78.9662 54.5913 78.5361 54.407 78.0447 54.407H59.4458C58.9499 54.407 58.5203 54.5913 58.1571 54.9599C57.7938 55.3284 57.6122 55.7584 57.6122 56.2499C57.6122 56.7414 57.7965 57.1714 58.165 57.5399C58.5336 57.9085 58.9637 58.0928 59.4551 58.0928ZM7.53208 62.4998C5.46076 62.4998 3.6876 61.7623 2.2126 60.2872C0.737535 58.8122 0 57.039 0 54.9677V7.53209C0 5.46077 0.737535 3.68761 2.2126 2.21261C3.6876 0.737538 5.46076 0 7.53208 0H71.6344C73.7057 0 75.4789 0.737538 76.9539 2.21261C78.4289 3.68761 79.1665 5.46077 79.1665 7.53209V31.3622C77.5158 30.6304 75.8225 30.0815 74.0864 29.7156C72.3503 29.3497 70.5714 29.1667 68.7499 29.1667C61.2053 29.1667 54.8053 31.7944 49.5499 37.0499C44.2944 42.3053 41.6667 48.7053 41.6667 56.2499C41.6667 57.2916 41.7308 58.3332 41.8591 59.3748C41.9873 60.4165 42.2063 61.4581 42.516 62.4998H7.53208Z" fill="url(#paint0_linear_42476_13139)"/>
<defs>
<linearGradient id="paint0_linear_42476_13139" x1="43.7499" y1="0" x2="43.7499" y2="74.9998" gradientUnits="userSpaceOnUse">
<stop offset="0.149081" stop-color="#83C6E5"/>
<stop offset="1" stop-color="white"/>
</linearGradient>
</defs>
</svg>
