<svg width="20" height="20" viewBox="0 0 20 20" fill="none" xmlns="http://www.w3.org/2000/svg">
<path d="M18.589 8.37581C18.5716 8.28779 18.5354 8.20456 18.483 8.13177C18.4305 8.05897 18.363 7.99832 18.2851 7.95393L15.9546 6.62581L15.9452 3.99924C15.9449 3.90879 15.925 3.81947 15.8868 3.73746C15.8487 3.65545 15.7932 3.5827 15.7241 3.52424C14.8788 2.80916 13.9053 2.26117 12.8554 1.9094C12.7727 1.88142 12.6851 1.87106 12.5981 1.879C12.5112 1.88694 12.4269 1.913 12.3507 1.95549L9.9999 3.26956L7.64678 1.95315C7.57049 1.91041 7.48609 1.88416 7.39902 1.87608C7.31195 1.86801 7.22416 1.87829 7.14131 1.90628C6.09207 2.26031 5.11962 2.81042 4.27569 3.52737C4.20675 3.58574 4.15129 3.65836 4.11313 3.74023C4.07496 3.8221 4.05499 3.91126 4.05459 4.00159L4.04287 6.63049L1.7124 7.95862C1.63444 8.00301 1.56694 8.06366 1.5145 8.13645C1.46206 8.20925 1.42591 8.29248 1.4085 8.38049C1.19521 9.45228 1.19521 10.5556 1.4085 11.6274C1.42591 11.7154 1.46206 11.7986 1.5145 11.8714C1.56694 11.9442 1.63444 12.0049 1.7124 12.0492L4.04287 13.3774L4.05225 16.0047C4.05253 16.0952 4.07245 16.1845 4.11062 16.2665C4.14879 16.3485 4.20431 16.4213 4.27334 16.4797C5.11871 17.1948 6.09221 17.7428 7.14209 18.0946C7.22477 18.1225 7.31239 18.1329 7.39932 18.125C7.48624 18.117 7.57054 18.091 7.64678 18.0485L9.9999 16.7305L12.353 18.0469C12.4462 18.0988 12.5511 18.1257 12.6577 18.125C12.726 18.125 12.7938 18.1139 12.8585 18.0922C13.9075 17.7383 14.8799 17.1888 15.7241 16.4727C15.7931 16.4143 15.8485 16.3417 15.8867 16.2598C15.9249 16.178 15.9448 16.0888 15.9452 15.9985L15.9569 13.3696L18.2874 12.0414C18.3654 11.997 18.4329 11.9364 18.4853 11.8636C18.5378 11.7908 18.5739 11.7076 18.5913 11.6196C18.8034 10.5486 18.8026 9.44643 18.589 8.37581ZM9.9999 13.125C9.38184 13.125 8.77765 12.9417 8.26375 12.5984C7.74984 12.255 7.3493 11.7669 7.11278 11.1959C6.87626 10.6249 6.81437 9.99656 6.93495 9.39037C7.05553 8.78418 7.35316 8.22736 7.7902 7.79032C8.22723 7.35328 8.78406 7.05565 9.39025 6.93507C9.99644 6.81449 10.6248 6.87638 11.1958 7.1129C11.7668 7.34943 12.2549 7.74996 12.5982 8.26387C12.9416 8.77777 13.1249 9.38196 13.1249 10C13.1249 10.8288 12.7957 11.6237 12.2096 12.2097C11.6236 12.7958 10.8287 13.125 9.9999 13.125Z" fill="#A39FB2"/>
</svg>
