<svg width="20" height="20" viewBox="0 0 20 20" fill="none" xmlns="http://www.w3.org/2000/svg">
<path d="M17.9421 17.058L14.0304 13.1471C15.1642 11.7859 15.7295 10.04 15.6089 8.27263C15.4882 6.50524 14.6908 4.85241 13.3825 3.65797C12.0743 2.46353 10.3559 1.81944 8.58486 1.85969C6.81382 1.89994 5.12647 2.62143 3.87383 3.87407C2.62118 5.12671 1.89969 6.81406 1.85944 8.58511C1.8192 10.3562 2.46328 12.0745 3.65772 13.3828C4.85217 14.691 6.505 15.4884 8.27238 15.6091C10.0398 15.7298 11.7856 15.1644 13.1468 14.0306L17.0577 17.9424C17.1158 18.0004 17.1848 18.0465 17.2606 18.0779C17.3365 18.1094 17.4178 18.1255 17.4999 18.1255C17.5821 18.1255 17.6634 18.1094 17.7392 18.0779C17.8151 18.0465 17.8841 18.0004 17.9421 17.9424C18.0002 17.8843 18.0463 17.8154 18.0777 17.7395C18.1091 17.6636 18.1253 17.5823 18.1253 17.5002C18.1253 17.4181 18.1091 17.3367 18.0777 17.2609C18.0463 17.185 18.0002 17.1161 17.9421 17.058ZM3.12493 8.75018C3.12493 7.63766 3.45483 6.55012 4.07292 5.6251C4.691 4.70007 5.56951 3.9791 6.59734 3.55336C7.62517 3.12761 8.75617 3.01622 9.84732 3.23326C10.9385 3.4503 11.9407 3.98603 12.7274 4.7727C13.5141 5.55937 14.0498 6.56165 14.2669 7.6528C14.4839 8.74394 14.3725 9.87494 13.9468 10.9028C13.521 11.9306 12.8 12.8091 11.875 13.4272C10.95 14.0453 9.86245 14.3752 8.74993 14.3752C7.2586 14.3735 5.82882 13.7804 4.77429 12.7258C3.71975 11.6713 3.12659 10.2415 3.12493 8.75018Z" fill="#524F5B"/>
</svg>
