<svg width="20" height="20" viewBox="0 0 20 20" fill="none" xmlns="http://www.w3.org/2000/svg">
<path d="M7.64123 9.9997L13.9185 16.2769C14.0841 16.4425 14.1647 16.6397 14.1605 16.8683C14.1562 17.0969 14.0713 17.294 13.9057 17.4596C13.7401 17.6252 13.543 17.708 13.3143 17.708C13.0857 17.708 12.8886 17.6252 12.723 17.4596L6.34319 11.067C6.19255 10.9163 6.08091 10.7476 6.00826 10.5606C5.93562 10.3736 5.8993 10.1867 5.8993 9.9997C5.8993 9.81274 5.93562 9.62577 6.00826 9.4388C6.08091 9.25184 6.19255 9.08304 6.34319 8.9324L12.7358 2.53978C12.9014 2.37418 13.0964 2.29352 13.3208 2.29778C13.5451 2.30206 13.7401 2.387 13.9057 2.55259C14.0713 2.71819 14.1541 2.9153 14.1541 3.14393C14.1541 3.37255 14.0713 3.56966 13.9057 3.73526L7.64123 9.9997Z" fill="#333236"/>
</svg>
