<svg width="20" height="20" viewBox="0 0 20 20" fill="none" xmlns="http://www.w3.org/2000/svg">
<path d="M18.7303 7.09452C18.7303 7.10311 18.7303 7.11093 18.7249 7.11952L16.953 15.2344C16.8984 15.5201 16.7459 15.7779 16.5218 15.9633C16.2976 16.1487 16.0158 16.2501 15.7249 16.25H4.27408C3.98331 16.2499 3.70167 16.1484 3.47766 15.963C3.25364 15.7777 3.10125 15.52 3.04673 15.2344L1.27486 7.11952C1.27486 7.11093 1.27095 7.10311 1.26939 7.09452C1.2209 6.82585 1.2617 6.54869 1.38556 6.30539C1.50942 6.06209 1.70953 5.86603 1.95531 5.74717C2.20109 5.62831 2.47902 5.59319 2.74665 5.64716C3.01427 5.70114 3.25686 5.84125 3.43736 6.04608L6.06783 8.88124L8.8647 2.60858C8.86483 2.60598 8.86483 2.60337 8.8647 2.60077C8.96471 2.38385 9.12478 2.20013 9.32596 2.07136C9.52713 1.94258 9.761 1.87415 9.99986 1.87415C10.2387 1.87415 10.4726 1.94258 10.6738 2.07136C10.8749 2.20013 11.035 2.38385 11.135 2.60077C11.1349 2.60337 11.1349 2.60598 11.135 2.60858L13.9319 8.88124L16.5624 6.04608C16.7432 5.84277 16.9855 5.70403 17.2524 5.65093C17.5193 5.59784 17.7962 5.63329 18.0411 5.7519C18.286 5.87051 18.4856 6.06581 18.6094 6.30813C18.7332 6.55045 18.7746 6.82655 18.7272 7.09452H18.7303Z" fill="#FFA500"/>
</svg>
