<svg width="16" height="16" viewBox="0 0 16 16" fill="none" xmlns="http://www.w3.org/2000/svg">
<path d="M6.33766 15.8333C6.15068 15.8333 5.98882 15.7705 5.85207 15.645C5.71532 15.5195 5.63306 15.3632 5.60528 15.1762L5.3633 13.2948C5.14001 13.22 4.91111 13.1153 4.67659 12.9807C4.44208 12.8461 4.23241 12.7019 4.04757 12.548L2.3072 13.282C2.12878 13.36 1.9517 13.3691 1.77595 13.3092C1.6002 13.2494 1.46211 13.1372 1.36168 12.9727L0.108509 10.79C0.0134117 10.6255 -0.0159703 10.4498 0.020363 10.2628C0.0566824 10.0758 0.150162 9.9252 0.3008 9.8109L1.80722 8.67146C1.78798 8.54753 1.77436 8.42306 1.76634 8.29806C1.75833 8.17306 1.75432 8.0486 1.75432 7.92467C1.75432 7.80607 1.75833 7.68561 1.76634 7.56327C1.77436 7.44094 1.78798 7.30713 1.80722 7.16183L0.3008 6.0224C0.150162 5.90809 0.0553491 5.75745 0.016363 5.57048C-0.022637 5.38352 0.00807833 5.20778 0.108509 5.04325L1.36168 2.87663C1.46211 2.7121 1.59886 2.59992 1.77195 2.54008C1.94502 2.48025 2.12076 2.48933 2.29918 2.56733L4.03955 3.29329C4.24041 3.1341 4.45489 2.98853 4.68299 2.85658C4.9111 2.72463 5.1352 2.61858 5.35528 2.53846L5.60528 0.657063C5.63306 0.47009 5.71532 0.31384 5.85207 0.188313C5.98882 0.0627709 6.15068 0 6.33766 0H8.86165C9.04861 0 9.2118 0.0627709 9.35122 0.188313C9.49065 0.31384 9.57425 0.47009 9.60203 0.657063L9.84401 2.54648C10.094 2.63729 10.3202 2.74332 10.5227 2.86458C10.7252 2.98585 10.9295 3.12875 11.1357 3.29329L12.9081 2.56733C13.0866 2.48933 13.2623 2.47892 13.4354 2.53608C13.6084 2.59324 13.7452 2.70408 13.8456 2.8686L15.0988 5.04325C15.1992 5.20778 15.2299 5.38352 15.1909 5.57048C15.152 5.75745 15.0571 5.90809 14.9065 6.0224L13.368 7.18586C13.398 7.32048 13.4143 7.44629 13.4169 7.56327C13.4196 7.68026 13.4209 7.79805 13.4209 7.91665C13.4209 8.0299 13.4183 8.14502 13.4129 8.262C13.4076 8.37899 13.3883 8.51281 13.3552 8.66346L14.8777 9.8109C15.0283 9.9252 15.1231 10.0758 15.1621 10.2628C15.2011 10.4498 15.1704 10.6255 15.07 10.79L13.8168 12.9599C13.7163 13.1244 13.5761 13.2374 13.3961 13.2988C13.2161 13.3602 13.0369 13.352 12.8584 13.274L11.1357 12.54C10.9295 12.7045 10.719 12.8501 10.5043 12.9767C10.2895 13.1033 10.0694 13.2067 9.84401 13.2868L9.60203 15.1762C9.57425 15.3632 9.49065 15.5195 9.35122 15.645C9.2118 15.7705 9.04861 15.8333 8.86165 15.8333H6.33766ZM6.77032 14.5833H8.40813L8.70782 12.3509C9.13303 12.2398 9.52165 12.082 9.87368 11.8774C10.2257 11.6728 10.5652 11.4097 10.8921 11.0881L12.9626 11.9583L13.7831 10.5416L11.9754 9.17946C12.0449 8.96365 12.0922 8.75212 12.1173 8.54486C12.1424 8.33759 12.1549 8.12819 12.1549 7.91665C12.1549 7.69977 12.1424 7.49037 12.1173 7.28844C12.0922 7.08652 12.0449 6.88033 11.9754 6.66986L13.7992 5.29165L12.9787 3.87498L10.8841 4.758C10.6053 4.45992 10.2711 4.19656 9.8817 3.96794C9.49227 3.7393 9.0983 3.57744 8.6998 3.48235L8.43699 1.24998H6.78313L6.50751 3.47433C6.08229 3.57476 5.68965 3.72861 5.32961 3.93588C4.96957 4.14314 4.62609 4.41024 4.29918 4.73717L2.22865 3.87498L1.40813 5.29165L3.20782 6.633C3.13838 6.83064 3.08977 7.0363 3.06199 7.24998C3.03421 7.46366 3.02032 7.68856 3.02032 7.92467C3.02032 8.14154 3.03421 8.35415 3.06199 8.56248C3.08977 8.77081 3.1357 8.97647 3.1998 9.17946L1.40813 10.5416L2.22865 11.9583L4.29115 11.0833C4.60739 11.4081 4.94553 11.6741 5.30557 11.8814C5.66561 12.0887 6.06359 12.2478 6.49949 12.359L6.77032 14.5833ZM7.61326 10.4166C8.30663 10.4166 8.89664 10.1733 9.38328 9.68667C9.86992 9.20002 10.1132 8.61001 10.1132 7.91665C10.1132 7.22329 9.86992 6.63328 9.38328 6.14663C8.89664 5.65999 8.30663 5.41667 7.61326 5.41667C6.91136 5.41667 6.31922 5.65999 5.83684 6.14663C5.35448 6.63328 5.1133 7.22329 5.1133 7.91665C5.1133 8.61001 5.35448 9.20002 5.83684 9.68667C6.31922 10.1733 6.91136 10.4166 7.61326 10.4166Z" fill="currentColor"/>
</svg>
